<mxfile host="app.diagrams.net" modified="2022-12-28T07:08:19.526Z" agent="5.0 (X11; Linux x86_64) AppleWebKit/537.36 (KHTML, like Gecko) Chrome/107.0.0.0 Safari/537.36" version="20.6.0" etag="RuZ05WhjyzBEAk_jfZSI" type="github">
  <diagram id="DYzsrtaEmNo7c1NcCwjp" name="Page-1">
    <mxGraphModel dx="2062" dy="2306" grid="1" gridSize="10" guides="1" tooltips="1" connect="1" arrows="1" fold="1" page="1" pageScale="1" pageWidth="827" pageHeight="1169" math="0" shadow="0">
      <root>
        <mxCell id="0" />
        <mxCell id="1" parent="0" />
        <mxCell id="L2q5ndp-vx6Lsbstt4Ye-1" value="postgres db" style="shape=cylinder3;whiteSpace=wrap;html=1;boundedLbl=1;backgroundOutline=1;size=15;" vertex="1" parent="1">
          <mxGeometry x="350" y="150" width="86" height="150" as="geometry" />
        </mxCell>
        <mxCell id="L2q5ndp-vx6Lsbstt4Ye-2" value="Table aggregation script" style="swimlane;whiteSpace=wrap;html=1;" vertex="1" parent="1">
          <mxGeometry x="70" y="370" width="200" height="200" as="geometry" />
        </mxCell>
        <mxCell id="L2q5ndp-vx6Lsbstt4Ye-3" value="aggregates 15 mins data&amp;nbsp;" style="text;html=1;align=center;verticalAlign=middle;resizable=0;points=[];autosize=1;strokeColor=none;fillColor=none;" vertex="1" parent="L2q5ndp-vx6Lsbstt4Ye-2">
          <mxGeometry x="24" y="75" width="160" height="30" as="geometry" />
        </mxCell>
        <mxCell id="L2q5ndp-vx6Lsbstt4Ye-4" value="API CONTAINER" style="swimlane;whiteSpace=wrap;html=1;" vertex="1" parent="1">
          <mxGeometry x="550" y="370" width="200" height="200" as="geometry" />
        </mxCell>
        <mxCell id="L2q5ndp-vx6Lsbstt4Ye-5" value="containes config parameters&lt;br&gt;bills generated&lt;br&gt;oa sheets to be processed" style="text;html=1;align=center;verticalAlign=middle;resizable=0;points=[];autosize=1;strokeColor=none;fillColor=none;" vertex="1" parent="L2q5ndp-vx6Lsbstt4Ye-4">
          <mxGeometry x="19" y="60" width="170" height="60" as="geometry" />
        </mxCell>
        <mxCell id="L2q5ndp-vx6Lsbstt4Ye-9" value="Supserset DashBoards" style="swimlane;fontStyle=0;childLayout=stackLayout;horizontal=1;startSize=30;horizontalStack=0;resizeParent=1;resizeParentMax=0;resizeLast=0;collapsible=1;marginBottom=0;whiteSpace=wrap;html=1;" vertex="1" parent="1">
          <mxGeometry x="254" y="-80" width="320" height="120" as="geometry" />
        </mxCell>
        <mxCell id="L2q5ndp-vx6Lsbstt4Ye-10" value="charts" style="text;strokeColor=none;fillColor=none;align=left;verticalAlign=middle;spacingLeft=4;spacingRight=4;overflow=hidden;points=[[0,0.5],[1,0.5]];portConstraint=eastwest;rotatable=0;whiteSpace=wrap;html=1;" vertex="1" parent="L2q5ndp-vx6Lsbstt4Ye-9">
          <mxGeometry y="30" width="320" height="30" as="geometry" />
        </mxCell>
        <mxCell id="L2q5ndp-vx6Lsbstt4Ye-13" value="react app" style="text;strokeColor=none;fillColor=none;align=left;verticalAlign=middle;spacingLeft=4;spacingRight=4;overflow=hidden;points=[[0,0.5],[1,0.5]];portConstraint=eastwest;rotatable=0;whiteSpace=wrap;html=1;" vertex="1" parent="L2q5ndp-vx6Lsbstt4Ye-9">
          <mxGeometry y="60" width="320" height="30" as="geometry" />
        </mxCell>
        <mxCell id="L2q5ndp-vx6Lsbstt4Ye-12" value="reports&amp;nbsp;" style="text;strokeColor=none;fillColor=none;align=left;verticalAlign=middle;spacingLeft=4;spacingRight=4;overflow=hidden;points=[[0,0.5],[1,0.5]];portConstraint=eastwest;rotatable=0;whiteSpace=wrap;html=1;" vertex="1" parent="L2q5ndp-vx6Lsbstt4Ye-9">
          <mxGeometry y="90" width="320" height="30" as="geometry" />
        </mxCell>
        <mxCell id="L2q5ndp-vx6Lsbstt4Ye-32" style="edgeStyle=orthogonalEdgeStyle;rounded=0;orthogonalLoop=1;jettySize=auto;html=1;entryX=1;entryY=0.5;entryDx=0;entryDy=0;" edge="1" parent="1" source="L2q5ndp-vx6Lsbstt4Ye-20" target="L2q5ndp-vx6Lsbstt4Ye-25">
          <mxGeometry relative="1" as="geometry">
            <Array as="points">
              <mxPoint x="810" y="220" />
              <mxPoint x="810" y="760" />
            </Array>
          </mxGeometry>
        </mxCell>
        <mxCell id="L2q5ndp-vx6Lsbstt4Ye-20" value="React App" style="swimlane;whiteSpace=wrap;html=1;" vertex="1" parent="1">
          <mxGeometry x="540" y="150" width="220" height="120" as="geometry" />
        </mxCell>
        <mxCell id="L2q5ndp-vx6Lsbstt4Ye-21" value="view and update config&amp;nbsp; params&lt;br&gt;upload oa sheets for procesing&lt;br&gt;download generated bills" style="text;html=1;align=center;verticalAlign=middle;resizable=0;points=[];autosize=1;strokeColor=none;fillColor=none;" vertex="1" parent="L2q5ndp-vx6Lsbstt4Ye-20">
          <mxGeometry x="15" y="50" width="190" height="60" as="geometry" />
        </mxCell>
        <mxCell id="L2q5ndp-vx6Lsbstt4Ye-24" style="edgeStyle=orthogonalEdgeStyle;rounded=0;orthogonalLoop=1;jettySize=auto;html=1;entryX=0.5;entryY=0;entryDx=0;entryDy=0;" edge="1" parent="1" source="L2q5ndp-vx6Lsbstt4Ye-13" target="L2q5ndp-vx6Lsbstt4Ye-20">
          <mxGeometry relative="1" as="geometry" />
        </mxCell>
        <mxCell id="L2q5ndp-vx6Lsbstt4Ye-25" value="OA SCRIPT" style="swimlane;whiteSpace=wrap;html=1;" vertex="1" parent="1">
          <mxGeometry x="550" y="660" width="200" height="200" as="geometry" />
        </mxCell>
        <mxCell id="L2q5ndp-vx6Lsbstt4Ye-26" value="Takes and proces the oa &lt;br&gt;sheet form the api and&amp;nbsp;&lt;br&gt;&amp;nbsp;create oa tables" style="text;html=1;align=center;verticalAlign=middle;resizable=0;points=[];autosize=1;strokeColor=none;fillColor=none;" vertex="1" parent="L2q5ndp-vx6Lsbstt4Ye-25">
          <mxGeometry x="29" y="70" width="150" height="60" as="geometry" />
        </mxCell>
        <mxCell id="L2q5ndp-vx6Lsbstt4Ye-33" value="BILL GENERATOR" style="swimlane;whiteSpace=wrap;html=1;startSize=23;" vertex="1" parent="1">
          <mxGeometry x="860" y="330" width="200" height="280" as="geometry" />
        </mxCell>
        <mxCell id="L2q5ndp-vx6Lsbstt4Ye-45" value="SMTP" style="swimlane;whiteSpace=wrap;html=1;" vertex="1" parent="L2q5ndp-vx6Lsbstt4Ye-33">
          <mxGeometry x="40" y="135" width="120" height="80" as="geometry" />
        </mxCell>
        <mxCell id="L2q5ndp-vx6Lsbstt4Ye-35" value="Generate bill and store table&lt;br&gt;send monthly bill via email&lt;br&gt;uploads bills to api container" style="text;html=1;align=center;verticalAlign=middle;resizable=0;points=[];autosize=1;strokeColor=none;fillColor=none;" vertex="1" parent="1">
          <mxGeometry x="875" y="400" width="170" height="60" as="geometry" />
        </mxCell>
        <mxCell id="L2q5ndp-vx6Lsbstt4Ye-39" value="" style="endArrow=classic;startArrow=classic;html=1;rounded=0;entryX=0;entryY=0.5;entryDx=0;entryDy=0;entryPerimeter=0;exitX=0.5;exitY=0;exitDx=0;exitDy=0;" edge="1" parent="1" source="L2q5ndp-vx6Lsbstt4Ye-2" target="L2q5ndp-vx6Lsbstt4Ye-1">
          <mxGeometry width="50" height="50" relative="1" as="geometry">
            <mxPoint x="150" y="360" as="sourcePoint" />
            <mxPoint x="200" y="310" as="targetPoint" />
            <Array as="points">
              <mxPoint x="170" y="225" />
            </Array>
          </mxGeometry>
        </mxCell>
        <mxCell id="L2q5ndp-vx6Lsbstt4Ye-40" value="" style="endArrow=classic;startArrow=classic;html=1;rounded=0;entryX=0.5;entryY=0;entryDx=0;entryDy=0;entryPerimeter=0;" edge="1" parent="1" target="L2q5ndp-vx6Lsbstt4Ye-1">
          <mxGeometry width="50" height="50" relative="1" as="geometry">
            <mxPoint x="393" y="40" as="sourcePoint" />
            <mxPoint x="430" y="380" as="targetPoint" />
          </mxGeometry>
        </mxCell>
        <mxCell id="L2q5ndp-vx6Lsbstt4Ye-41" value="" style="endArrow=classic;startArrow=classic;html=1;rounded=0;entryX=0;entryY=0.5;entryDx=0;entryDy=0;" edge="1" parent="1" target="L2q5ndp-vx6Lsbstt4Ye-4">
          <mxGeometry width="50" height="50" relative="1" as="geometry">
            <mxPoint x="270" y="470" as="sourcePoint" />
            <mxPoint x="320" y="410" as="targetPoint" />
          </mxGeometry>
        </mxCell>
        <mxCell id="L2q5ndp-vx6Lsbstt4Ye-42" value="" style="endArrow=classic;startArrow=classic;html=1;rounded=0;entryX=0.5;entryY=1;entryDx=0;entryDy=0;exitX=0.5;exitY=0;exitDx=0;exitDy=0;" edge="1" parent="1" source="L2q5ndp-vx6Lsbstt4Ye-4" target="L2q5ndp-vx6Lsbstt4Ye-20">
          <mxGeometry width="50" height="50" relative="1" as="geometry">
            <mxPoint x="380" y="430" as="sourcePoint" />
            <mxPoint x="430" y="380" as="targetPoint" />
          </mxGeometry>
        </mxCell>
        <mxCell id="L2q5ndp-vx6Lsbstt4Ye-43" value="" style="endArrow=classic;startArrow=classic;html=1;rounded=0;entryX=0;entryY=0.5;entryDx=0;entryDy=0;exitX=1;exitY=0.5;exitDx=0;exitDy=0;" edge="1" parent="1" source="L2q5ndp-vx6Lsbstt4Ye-4" target="L2q5ndp-vx6Lsbstt4Ye-33">
          <mxGeometry width="50" height="50" relative="1" as="geometry">
            <mxPoint x="380" y="430" as="sourcePoint" />
            <mxPoint x="430" y="380" as="targetPoint" />
          </mxGeometry>
        </mxCell>
        <mxCell id="L2q5ndp-vx6Lsbstt4Ye-44" value="" style="endArrow=classic;startArrow=classic;html=1;rounded=0;entryX=0.5;entryY=1;entryDx=0;entryDy=0;exitX=0.5;exitY=0;exitDx=0;exitDy=0;" edge="1" parent="1" source="L2q5ndp-vx6Lsbstt4Ye-25" target="L2q5ndp-vx6Lsbstt4Ye-4">
          <mxGeometry width="50" height="50" relative="1" as="geometry">
            <mxPoint x="380" y="430" as="sourcePoint" />
            <mxPoint x="430" y="380" as="targetPoint" />
            <Array as="points" />
          </mxGeometry>
        </mxCell>
        <mxCell id="L2q5ndp-vx6Lsbstt4Ye-46" value="" style="endArrow=classic;startArrow=classic;html=1;rounded=0;entryX=0.5;entryY=1;entryDx=0;entryDy=0;entryPerimeter=0;exitX=0;exitY=0.5;exitDx=0;exitDy=0;" edge="1" parent="1" source="L2q5ndp-vx6Lsbstt4Ye-25" target="L2q5ndp-vx6Lsbstt4Ye-1">
          <mxGeometry width="50" height="50" relative="1" as="geometry">
            <mxPoint x="380" y="430" as="sourcePoint" />
            <mxPoint x="430" y="380" as="targetPoint" />
            <Array as="points">
              <mxPoint x="390" y="760" />
            </Array>
          </mxGeometry>
        </mxCell>
        <mxCell id="L2q5ndp-vx6Lsbstt4Ye-47" value="postgres db" style="shape=cylinder3;whiteSpace=wrap;html=1;boundedLbl=1;backgroundOutline=1;size=15;" vertex="1" parent="1">
          <mxGeometry x="630" y="1010" width="86" height="150" as="geometry" />
        </mxCell>
      </root>
    </mxGraphModel>
  </diagram>
</mxfile>
